<?xml version="1.0" standalone="no"?>
<!DOCTYPE svg PUBLIC "-//W3C//DTD SVG 20010904//EN"
 "http://www.w3.org/TR/2001/REC-SVG-20010904/DTD/svg10.dtd">
<svg version="1.0" xmlns="http://www.w3.org/2000/svg"
 width="1249.000000pt" height="1280.000000pt" viewBox="0 0 1249.000000 1280.000000"
 preserveAspectRatio="xMidYMid meet">
<metadata>
Created by potrace 1.15, written by Peter Selinger 2001-2017
</metadata>
<g transform="translate(0.000000,1280.000000) scale(0.100000,-0.100000)"
fill="#000000" stroke="none">
<path d="M8550 11712 c-1905 -2187 -2063 -2367 -2070 -2370 -4 -1 -56 57 -116
130 -60 73 -691 842 -1402 1708 -712 866 -1297 1576 -1302 1578 -6 2 -805
-730 -2548 -2332 -89 -82 -162 -153 -162 -158 0 -5 722 -790 1605 -1744 883
-955 1605 -1739 1605 -1744 0 -7 -662 -699 -2964 -3099 -298 -310 -542 -566
-544 -570 -4 -10 2409 -2406 2423 -2406 7 0 224 248 481 550 258 303 699 818
979 1145 280 327 788 920 1128 1318 340 398 622 722 627 720 8 -3 1463 -1742
2488 -2973 344 -412 628 -754 633 -759 4 -5 19 0 33 12 14 11 236 218 494 459
257 242 868 814 1357 1272 490 458 891 836 893 839 2 6 -1546 1616 -3309 3443
l-208 215 752 786 c414 432 1171 1222 1682 1757 512 534 931 975 933 980 2 7
-2480 2283 -2527 2317 -14 10 -167 -162 -961 -1074z"/>
</g>
</svg>
